# xmcd
#
# Track frame offsets:
#   150
#   13067
#   24237
#   36334
#   48868
#   60279
#   72098
#   82055
#   95899
#   103452
#   115360
#   127335
#   137986
#   150534
#   163406
#   175363
#   188023
#   201276
#   214348
#   226410
#   237412
#   247556
#   260717
#   271387
#   282674
#
# Disc length: 3914 seconds
#
# Revision: 2
# Processed by: cddbd v1.5.1PL0 Copyright (c) Steve Scherf et al.
# Submitted via: Media_Universe 3.0
#
DISCID=7f0f4819
DTITLE=Various Artist - Honky Tonk 1939-1951 - Les Triomphes de la Country Music Vol.13
DYEAR=2002
DGENRE=Honky Tonk
TTITLE0=Floyd Tillman - Don't Be Blue
TTITLE1=Roy Hall - Polecat Blues
TTITLE2=Ted Daffan - Born To Lose
TTITLE3=Al Dexter - Pistol Packin' Mama
TTITLE4=Texas Ruby - Don't Let That Man Get You Down
TTITLE5=Jerry Irby - Drivin' Nails In My Coffin
TTITLE6=T.Texas Tyler - You Doggone Son Of A Gun
TTITLE7=Jack Guthrie - Trouble In Mind
TTITLE8=Jack Guthrie - Careless Love
TTITLE9=Merle Travis - Nine Pound Hammer
TTITLE10=Gene Autry - Dixie Cannon Ball
TTITLE11=Jenny Lou Carson - I L.O.V.E. You
TTITLE12=Johnny Bond - Smoke! Smoke! Smoke! That Cigarette
TTITLE13=Paul Howard - Drinkin' All My Troubles Away
TTITLE14=Jesse Ashlock - Betty Ann
TTITLE15=Jimmie Skinner - You're My Big Baby Now
TTITLE16=Judy Perkins - The Moon Still Shines On The Mmonshine Still
TTITLE17=Little Jimmy Dickens - Hillbilly Fever
TTITLE18=Rocky Bill Ford - Beer Drinking Blues
TTITLE19=Allen Reynolds - Beer Bottle Mama
TTITLE20=Lefty Frizzell - My Baby's Just Like Money
TTITLE21=Lefty Frizzell - If You've Got The Money I've Got The Time
TTITLE22=Joe Cannon Ball Lewis - Truck Drivers Night Run Blues
TTITLE23=Skeets Mc Donald - Today, I'm Movin' Out
TTITLE24=Gene O'Quinn - The Pinball Millionaire
EXTD=YEAR: 2002
EXTT0=
EXTT1=
EXTT2=
EXTT3=
EXTT4=
EXTT5=
EXTT6=
EXTT7=
EXTT8=
EXTT9=
EXTT10=
EXTT11=
EXTT12=
EXTT13=
EXTT14=
EXTT15=
EXTT16=
EXTT17=
EXTT18=
EXTT19=
EXTT20=
EXTT21=
EXTT22=
EXTT23=
EXTT24=
PLAYORDER=
